<svg xmlns="http://www.w3.org/2000/svg" xmlns:xlink="http://www.w3.org/1999/xlink" aria-hidden="true" role="img" class="iconify iconify--logos" width="35.93" height="32" preserveAspectRatio="xMidYMid meet" viewBox="0 0 256 228"><path fill="#00D8FF" d="M210.483 73.824a171.49 171.49 0 0 0-8.24-2.597c.465-1.9.893-3.777 1.273-5.621c6.238-30.281 2.16-54.676-11.769-62.708c-13.355-7.7-35.196.329-57.254 19.526a171.23 171.23 0 0 0-6.375 5.848a155.866 155.866 0 0 0-4.241-3.917C100.759 3.829 77.587-4.822 63.673 3.233C50.33 10.957 46.379 33.89 51.995 62.588a170.974 170.974 0 0 0 1.892 8.48c-3.28.932-6.445 1.924-9.474 2.98C17.309 83.498 0 98.307 0 113.668c0 15.865 18.582 31.778 46.812 41.427a145.52 145.52 0 0 0 6.921 2.165a167.467 167.467 0 0 0-2.01 9.138c-5.354 28.2-1.173 50.591 12.134 58.266c13.744 7.926 36.812-.22 59.273-19.855a145.567 145.567 0 0 0 5.342-4.923a168.064 168.064 0 0 0 6.92 6.314c21.758 18.722 43.246 26.282 56.54 18.586c13.731-7.949 18.194-32.003 12.4-61.268a145.016 145.016 0 0 0-1.535-6.842c1.62-.48 3.21-.974 4.76-1.488c29.348-9.723 48.443-25.443 48.443-41.52c0-15.417-17.868-30.326-45.517-39.844Zm-6.365 70.984c-1.4.463-2.836.91-4.3 1.345c-3.24-10.257-7.612-21.163-12.963-32.432c5.106-11 9.31-21.767 12.459-31.957c2.619.758 5.16 1.557 7.61 2.4c23.69 8.156 38.14 20.213 38.14 29.504c0 9.896-15.606 22.743-40.946 31.14Zm-10.514 20.834c2.562 12.94 2.927 24.64 1.23 33.787c-1.524 8.219-4.59 13.698-8.382 15.893c-8.067 4.67-25.32-1.4-43.927-17.412a156.726 156.726 0 0 1-6.437-5.87c7.214-7.889 14.423-17.06 21.459-27.246c12.376-1.098 24.068-2.894 34.671-5.345a134.17 134.17 0 0 1 1.386 6.193ZM87.276 214.515c-7.882 2.783-14.16 2.863-17.955.675c-8.075-4.657-11.432-22.636-6.853-46.752a156.923 156.923 0 0 1 1.869-8.499c10.486 2.32 22.093 3.988 34.498 4.994c7.084 9.967 14.501 19.128 21.976 27.15a134.668 134.668 0 0 1-4.877 4.492c-9.933 8.682-19.886 14.842-28.658 17.94ZM50.35 144.747c-12.72-4.283-22.192-10.185-27.587-16.752c-5.492-6.68-5.392-13.352 0.287-19.098c5.006-5.207 13.003-9.38 23.068-12.013a155.826 155.826 0 0 1 1.869-8.499c10.486 2.32 22.093 3.988 34.498 4.994c-2.768 4.36-5.628 8.88-8.556 13.544c-3.218 5.36-6.318 10.787-9.28 16.271a134.64 134.64 0 0 1-4.877 4.492c-9.933 8.682-19.886 14.842-28.658 17.94Zm12.263 61.361c-8.32-4.003-14.16-9.642-17.03-15.893c-2.96-6.418-2.84-13.675.413-21.275c3.055-7.108 8.663-14.148 16.29-20.675c7.627-6.527 16.88-11.903 26.68-15.787c9.8-3.884 19.733-5.996 28.84-6.218c9.107.222 19.04 2.334 28.84 6.218c9.8 3.884 19.053 9.26 26.68 15.787c7.627 6.527 13.235 13.567 16.29 20.675c3.253 7.6 3.373 14.857.413 21.275c-2.87 6.251-8.71 11.89-17.03 15.893c-8.32 4.003-18.253 6.115-28.36 6.337c-10.107-.222-20.04-2.334-29.84-6.337c-9.8-3.884-19.053-9.26-26.68-15.787a134.64 134.64 0 0 1-4.877-4.492c-9.933-8.682-19.886-14.842-28.658-17.94Zm-12.263-61.361c12.72 4.283 22.192 10.185 27.587 16.752c5.492 6.68 5.392 13.352-.287 19.098c-5.006 5.207-13.003 9.38-23.068 12.013a155.826 155.826 0 0 1-1.869 8.499c-10.486-2.32-22.093-3.988-34.498-4.994c2.768-4.36 5.628-8.88 8.556-13.544c3.218-5.36 6.318-10.787 9.28-16.271a134.64 134.64 0 0 1 4.877-4.492c9.933-8.682 19.886-14.842 28.658-17.94Zm-12.263 61.361c8.32 4.003 14.16 9.642 17.03 15.893c2.96 6.418 2.84 13.675-.413 21.275c-3.055 7.108-8.663 14.148-16.29 20.675c-7.627 6.527-16.88 11.903-26.68 15.787c-9.8 3.884-19.733 5.996-28.84 6.218c-9.107-.222-19.04-2.334-28.84-6.218c-9.8-3.884-19.053-9.26-26.68-15.787c-7.627-6.527-13.235-13.567-16.29-20.675c-3.253-7.6-3.373-14.857-.413-21.275c2.87-6.251 8.71-11.89 17.03-15.893c8.32-4.003 18.253-6.115 28.36-6.337c10.107.222 20.04 2.334 29.84 6.337c9.8 3.884 19.053 9.26 26.68 15.787c7.627 6.527 13.235 13.567 16.29 20.675c3.253 7.6 3.373 14.857.413 21.275c-2.87 6.251-8.71 11.89-17.03 15.893Zm12.263-61.361c-12.72-4.283-22.192-10.185-27.587-16.752c-5.492-6.68-5.392-13.352.287-19.098c5.006-5.207 13.003-9.38 23.068-12.013a155.826 155.826 0 0 1 1.869-8.499c10.486 2.32 22.093 3.988 34.498 4.994c-2.768 4.36-5.628 8.88-8.556 13.544c-3.218 5.36-6.318 10.787-9.28 16.271a134.64 134.64 0 0 1-4.877 4.492c-9.933 8.682-19.886 14.842-28.658 17.94Z"></path></svg>
